<svg width="80" height="80" viewBox="0 0 80 80" fill="none" xmlns="http://www.w3.org/2000/svg">
<g clip-path="url(#clip0_137_70)">
<path d="M40 2C60.9884 2 78 19.0116 78 40C78 60.9884 60.9884 78 40 78C19.0116 78 2 60.9884 2 40C2 19.0116 19.0116 2 40 2Z" stroke="white" stroke-width="4"/>
<path d="M21.984 40.0002L22.0128 50.5771L31 55.8656V62.0579L16.7532 53.7021V36.9072L21.984 40.0002ZM21.984 29.4233V35.5867L16.75 32.4906V26.3271L21.984 23.231L27.2436 26.3271L21.984 29.4233ZM34.7532 26.3271L39.9872 23.231L45.2468 26.3271L39.9872 29.4233L34.7532 26.3271Z" fill="white"/>
<path d="M25.7656 48.3848V42.1925L30.9996 45.2887V51.4521L25.7656 48.3848ZM34.7528 58.0835L39.9868 61.1797L45.2464 58.0835V64.247L39.9868 67.3431L34.7528 64.247V58.0835ZM52.7528 26.3271L57.9868 23.231L63.2464 26.3271V32.4906L57.9868 35.5867V29.4233L52.7528 26.3271ZM57.9868 50.5771L58.0156 40.0002L63.2496 36.904V53.6989L49.0028 62.0547V55.8624L57.9868 50.5771Z" fill="white"/>
<path d="M54.234 48.3847L49 51.452V45.2885L54.234 42.1924V48.3847Z" fill="white"/>
<path d="M54.2336 31.6156L54.2624 37.8079L45.2496 43.0963V53.6989L40.0156 56.7662L34.7816 53.6989V43.0963L25.7688 37.8079V31.6156L31.0252 28.5194L39.9836 33.8335L48.9964 28.5194L54.256 31.6156H54.2336ZM25.7656 21.0418L39.9868 12.6572L54.2336 21.0418L48.9996 24.138L39.9868 18.8239L30.9996 24.138L25.7656 21.0418Z" fill="white"/>
</g>
<defs>
<clipPath id="clip0_137_70">
<rect width="80" height="80" fill="white"/>
</clipPath>
</defs>
</svg>
