<svg width="78" height="78" viewBox="0 0 78 78" fill="none" xmlns="http://www.w3.org/2000/svg">
<g clip-path="url(#clip0_138_121)">
<path d="M35.8174 16.9894C32.8933 16.9894 23.458 16.9894 23.458 16.9894V36.5809H18.3818V41.3795H23.4582V60.971H37.8593C37.8593 60.971 58.1085 62.7069 58.1085 39.3471C58.1085 16.3682 38.7418 16.9894 35.8174 16.9894ZM37.5281 52.8408C35.9971 52.8408 31.5689 52.8408 31.5689 52.8408V41.3797H40.5075V36.5811H31.5689V25.1196C31.5689 25.1196 35.1276 25.1196 37.252 25.1196C39.3764 25.1196 50.0665 25.9944 50.0828 39.506C50.0994 53.0174 39.0588 52.8408 37.5281 52.8408Z" fill="white"/>
</g>
<path d="M39 0C17.4607 0 0 17.4607 0 39C0 60.5393 17.4607 78 39 78C60.5393 78 78 60.5393 78 39C78 17.4607 60.5393 0 39 0Z" stroke="white" stroke-width="4"/>
<defs>
<clipPath id="clip0_138_121">
<rect width="43" height="44" fill="white" transform="translate(17 17)"/>
</clipPath>
</defs>
</svg>
