<svg width="80" height="80" viewBox="0 0 80 80" fill="none" xmlns="http://www.w3.org/2000/svg">
<path d="M40 0C17.9084 0 0 17.9084 0 40C0 62.0916 17.9084 80 40 80C62.0916 80 80 62.0916 80 40C80 17.9084 62.0916 0 40 0Z" fill="white"/>
<path d="M40 0C17.9084 0 0 17.9084 0 40C0 62.0916 17.9084 80 40 80C62.0916 80 80 62.0916 80 40C80 17.9084 62.0916 0 40 0Z" fill="white"/>
<path d="M40 0C17.9084 0 0 17.9084 0 40C0 62.0916 17.9084 80 40 80C62.0916 80 80 62.0916 80 40C80 17.9084 62.0916 0 40 0Z" stroke="white" stroke-width="4"/>
<g clip-path="url(#clip0_137_56)">
<path d="M37.5043 18.9898C34.7842 18.9898 26.0072 18.9898 26.0072 18.9898V37.6908H21.2852V42.2713H26.0073V60.9722H39.4037C39.4037 60.9722 58.2402 62.6293 58.2402 40.3313C58.2402 18.3968 40.2246 18.9898 37.5043 18.9898ZM39.0956 53.2116C37.6715 53.2116 33.5522 53.2116 33.5522 53.2116V42.2715H41.8671V37.691H33.5522V26.7504C33.5522 26.7504 36.8626 26.7504 38.8388 26.7504C40.815 26.7504 50.7592 27.5855 50.7744 40.4829C50.7899 53.3802 40.5196 53.2116 39.0956 53.2116Z" fill="#050351"/>
</g>
<defs>
<clipPath id="clip0_137_56">
<rect width="40" height="42" fill="white" transform="translate(20 19)"/>
</clipPath>
</defs>
</svg>
