<svg width="80" height="80" viewBox="0 0 80 80" fill="none" xmlns="http://www.w3.org/2000/svg">
<g clip-path="url(#clip0_138_126)">
<path d="M36.8174 17.9894C33.8933 17.9894 24.458 17.9894 24.458 17.9894V37.5809H19.3818V42.3795H24.4582V61.971H38.8593C38.8593 61.971 59.1085 63.7069 59.1085 40.3471C59.1085 17.3682 39.7418 17.9894 36.8174 17.9894ZM38.5281 53.8408C36.9971 53.8408 32.5689 53.8408 32.5689 53.8408V42.3797H41.5075V37.5811H32.5689V26.1196C32.5689 26.1196 36.1276 26.1196 38.252 26.1196C40.3764 26.1196 51.0665 26.9944 51.0828 40.506C51.0994 54.0174 40.0588 53.8408 38.5281 53.8408Z" fill="white"/>
</g>
<path d="M76.8537 49.1924L78.7943 49.6762L76.8537 49.1924C71.7786 69.5493 51.1603 81.9383 30.8006 76.8619C10.4502 71.7868 -1.93882 51.1672 3.13848 30.8119L3.13861 30.8114C8.21149 10.4521 28.8299 -1.93747 49.1826 3.13752L49.1827 3.13754C69.5404 8.21259 81.9294 28.8342 76.8537 49.1924Z" stroke="white" stroke-width="4"/>
<defs>
<clipPath id="clip0_138_126">
<rect width="43" height="44" fill="white" transform="translate(18 18)"/>
</clipPath>
</defs>
</svg>
