<svg width="80" height="80" viewBox="0 0 80 80" fill="none" xmlns="http://www.w3.org/2000/svg">
<path d="M79.999 39.9961C79.999 62.0845 62.0923 79.9919 40 79.9919C17.9077 79.9919 0.000976562 62.0845 0.000976562 39.9961C0.000976562 17.9076 17.9081 0 40 0C62.0919 0 79.999 17.9059 79.999 39.9961Z" fill="#050351"/>
<path d="M39.9997 0C17.9152 0 -0.0231985 17.9329 0.00491581 39.9948C0.0104535 44.4087 0.714377 48.6546 2.03554 52.6262H14.0029V18.9805L39.9997 44.9743L65.9952 18.9805V52.6268H77.9651C79.2882 48.6554 79.9885 44.4095 79.9964 39.9954C80.0341 17.9105 62.0865 0.00532412 39.9997 0.00532412V0Z" fill="white"/>
<path d="M34.0214 50.9501L22.6762 39.6055V60.7772H14.0023L5.81738 60.7786C12.8381 72.2958 25.5262 80 39.9999 80C54.4737 80 67.1624 72.2941 74.1844 60.7769H57.3212V39.6055L45.9753 50.9501L39.9987 56.9261L34.0218 50.9501H34.0214Z" fill="white"/>
</svg>
