<svg width="88" height="88" viewBox="0 0 88 88" fill="none" xmlns="http://www.w3.org/2000/svg">
<path d="M44 85.9919C67.1968 85.9919 85.999 67.1892 85.999 43.9961C85.999 20.8012 67.1963 2 44 2C20.8036 2 2.00098 20.8029 2.00098 43.9961C2.00098 67.1892 20.8032 85.9919 44 85.9919Z" fill="white" stroke="white" stroke-width="4"/>
<path d="M43.9997 4C21.9152 4 3.9768 21.9329 4.00492 43.9948C4.01045 48.4087 4.71438 52.6546 6.03554 56.6262H18.0029V22.9805L43.9997 48.9743L69.9952 22.9805V56.6268H81.9651C83.2882 52.6554 83.9885 48.4095 83.9964 43.9954C84.0341 21.9105 66.0865 4.00532 43.9997 4.00532V4Z" fill="#050351"/>
<path d="M38.0214 54.9501L26.6762 43.6055V64.7772H18.0023L9.81738 64.7786C16.8381 76.2958 29.5262 84 43.9999 84C58.4737 84 71.1624 76.2941 78.1844 64.7769H61.3212V43.6055L49.9753 54.9501L43.9987 60.9261L38.0218 54.9501H38.0214Z" fill="#050351"/>
</svg>
