<svg width="80" height="80" viewBox="0 0 80 80" fill="none" xmlns="http://www.w3.org/2000/svg">
<rect width="80" height="80" rx="40" fill="white"/>
<g clip-path="url(#clip0_136_54)">
<path d="M23.7973 51.056C24.087 50.7326 24.4853 50.5439 24.9077 50.5439H63.216C63.916 50.5439 64.266 51.4872 63.7712 52.0396L56.2037 60.4881C55.914 60.8115 55.5157 61.0002 55.0933 61.0002H16.785C16.085 61.0002 15.735 60.0569 16.2298 59.5045L23.7973 51.056Z" fill="#050351"/>
<path d="M23.7963 19.512C24.0981 19.1886 24.4964 19 24.9067 19H63.215C63.915 19 64.265 19.9432 63.7702 20.4957L56.2027 28.9442C55.913 29.2676 55.5147 29.4562 55.0923 29.4562H16.784C16.084 29.4562 15.734 28.513 16.2288 27.9605L23.7963 19.512Z" fill="#050351"/>
<path d="M56.2037 35.1829C55.914 34.8595 55.5157 34.6709 55.0933 34.6709H16.785C16.085 34.6709 15.735 35.6141 16.2298 36.1666L23.7973 44.6151C24.087 44.9385 24.4853 45.1271 24.9077 45.1271H63.216C63.916 45.1271 64.266 44.1839 63.7712 43.6314L56.2037 35.1829Z" fill="#050351"/>
</g>
<defs>
<clipPath id="clip0_136_54">
<rect width="48" height="42" fill="white" transform="translate(16 19)"/>
</clipPath>
</defs>
</svg>
