<svg width="80" height="80" viewBox="0 0 80 80" fill="none" xmlns="http://www.w3.org/2000/svg">
<rect x="2" y="2" width="76" height="76" rx="38" fill="white" stroke="white" stroke-width="4"/>
<g clip-path="url(#clip0_136_44)">
<path d="M56.2612 21H62.9097L49.0737 34.6657C44.0632 39.6119 35.9395 39.6119 30.9253 34.6657L17.084 21H23.7378L34.2495 31.381C35.7811 32.8867 37.8451 33.7308 39.9955 33.7308C42.1459 33.7308 44.2099 32.8867 45.7414 31.381L56.2612 21Z" fill="#050351"/>
<path d="M23.6529 59.0001H17L30.9258 45.2502C35.9364 40.304 44.06 40.304 49.0742 45.2502L63 59.0001H56.3516L45.75 48.5349C44.2184 47.0291 42.1544 46.1851 40.004 46.1851C37.8537 46.1851 35.7896 47.0291 34.2581 48.5349L23.6529 59.0001Z" fill="#050351"/>
</g>
<defs>
<clipPath id="clip0_136_44">
<rect width="46" height="38" fill="white" transform="translate(17 21)"/>
</clipPath>
</defs>
</svg>
